 <svg xmlns="http://www.w3.org/2000/svg" width="180" height="288">
     <g fill="none">
         <path fill="#2E4A99" d="M90 91l75.16 33.981L177 149.695l-16.429 16.99L90 134.25z" />
         <path fill="#3069F0" d="M108 123.232V118l38.834 18.277v-8.918l8.93 14.949-8.93 7.228v-8.252z" />
         <path fill="#2E4A99" d="M90 134.79l-75.16-34.028L3 76.014 19.429 59 90 91.481z" />
         <path fill="#3069F0" d="M70.765 101.34v5.239L31.93 88.276v8.93L23 82.239 31.93 75v8.263z" />
         <path fill="#FFD500" d="M87 90.88l75.16-33.62L174 32.81 157.571 16 87 48.091z" />
         <path fill="#E69729" d="M107 58.023V63.2l38.834-18.083v8.823l8.93-14.79-8.93-7.15v8.163z" />
         <path
             d="M96.674 24.938A8.46 8.46 0 0 1 98 29.5V288H81V29.5a8.46 8.46 0 0 1 1.326-4.562A13.49 13.49 0 0 1 76 13.5C76 6.044 82.044 0 89.5 0S103 6.044 103 13.5c0 4.82-2.526 9.05-6.326 11.438z"
             fill="#233466" />
     </g>
 </svg>